<?xml version="1.0" encoding="UTF-8" standalone="no"?>
<!-- Created with Inkscape (http://www.inkscape.org/) -->

<svg
   width="5in"
   height="3.75in"
   viewBox="0 0 127 95.25"
   version="1.1"
   id="svg1"
   xml:space="preserve"
   sodipodi:docname="simple-scene-2.svg"
   inkscape:version="1.4.4 (dcaf3e7, 2026-05-05)"
   xmlns:inkscape="http://www.inkscape.org/namespaces/inkscape"
   xmlns:sodipodi="http://sodipodi.sourceforge.net/DTD/sodipodi-0.dtd"
   xmlns:xlink="http://www.w3.org/1999/xlink"
   xmlns="http://www.w3.org/2000/svg"
   xmlns:svg="http://www.w3.org/2000/svg"><sodipodi:namedview
     id="namedview1"
     pagecolor="#ffffff"
     bordercolor="#000000"
     borderopacity="0.25"
     inkscape:showpageshadow="2"
     inkscape:pageopacity="0.0"
     inkscape:pagecheckerboard="0"
     inkscape:deskcolor="#d1d1d1"
     inkscape:document-units="in"
     inkscape:zoom="1.7713671"
     inkscape:cx="207.18461"
     inkscape:cy="179.24009"
     inkscape:window-width="1920"
     inkscape:window-height="1022"
     inkscape:window-x="0"
     inkscape:window-y="30"
     inkscape:window-maximized="1"
     inkscape:current-layer="svg1" /><defs
     id="defs1" /><g
     id="g24"
     style="display:inline"
     transform="matrix(0.88645985,0,0,0.88645985,-5.4020169,11.234352)"><path
       style="opacity:1;fill:none;stroke:#ff0000;stroke-width:0.079375;stroke-dasharray:none;stroke-opacity:1"
       d="m 130.26797,60.767994 c -0.21838,-0.19517 -8.1145,-5.096447 -8.1145,-5.096447 0,0 -2.5975,2.655664 -3.0859,4.500196 -0.0559,0.210712 0.0652,0.650816 0.0652,0.650816 0,0 4.50976,3.841668 5.32009,3.635206 2.33304,-0.594405 5.81514,-3.689771 5.81514,-3.689771 z"
       id="path21" /><path
       style="display:inline;opacity:1;fill:none;stroke:#ff0000;stroke-width:0.079375;stroke-dasharray:none;stroke-opacity:1"
       d="m 123.16201,54.196103 c 4.21677,-5.945612 5.91604,-14.356546 5.91604,-14.356546 0,0 9.68655,5.308333 9.34682,6.592022 -1.95101,7.372006 -6.97458,13.153445 -6.97458,13.153445 0,0 -8.48754,-5.107955 -8.28828,-5.388921 z"
       id="path22" /><path
       style="opacity:1;fill:none;stroke:#ff0000;stroke-width:0.079375;stroke-dasharray:none;stroke-opacity:1"
       d="m 129.37209,38.295508 c 0.0244,-0.133804 -0.44658,-1.411556 -0.08,-1.579323 2.22317,-1.017321 5.14631,0.11847 7.34423,1.189219 2.13739,1.041257 2.2156,6.188263 1.97591,6.003211 -2.94886,-2.276433 -9.24016,-5.613107 -9.24016,-5.613107 z"
       id="path23" /><path
       style="opacity:1;fill:none;stroke:#ff0000;stroke-width:0.079375;stroke-dasharray:none;stroke-opacity:1"
       d="m 127.19709,35.64591 c 0,0 -3.51411,-2.721944 -4.13601,-3.769565 -0.17875,-0.301074 -0.25138,-0.733107 -0.0945,-1.046139 0.62793,-1.253181 2.18813,-2.049492 3.5813,-2.203883 0.98112,-0.108725 1.95198,0.45803 2.80068,0.962143 1.37332,0.815742 6.83565,5.948348 6.72346,5.91532 -1.91206,-0.562909 -5.05845,-1.536853 -8.87493,0.142116 z"
       id="path24" /></g><g
     id="layer11"
     style="display:inline"
     transform="translate(-7.1894316,-8.4028334)"><path
       style="opacity:1;fill:none;stroke:#ff0000;stroke-width:0.079375;stroke-dasharray:none;stroke-opacity:1"
       d="m 102.96236,36.853341 c 0.0369,0.06418 1.3322,0.314884 1.3322,0.314884 0,0 0.13243,-0.126548 0.12673,-0.207354 -0.0441,-0.62699 0.0577,-1.29855 -1.48315,-1.821222 -0.65754,-0.223042 -2.27828,-0.593804 -2.04069,-0.417826 1.23097,0.911745 1.23047,0.682306 2.06491,2.131518 z"
       id="path30" /><path
       style="opacity:1;fill:none;stroke:#ff0000;stroke-width:0.079375;stroke-dasharray:none;stroke-opacity:1"
       d="m 101.25083,35.982827 c -3.995445,1.630643 -4.055065,6.327303 -4.086595,7.211492 -0.003,0.08695 -0.11612,0.139135 -0.19697,0.171274 -0.0947,0.03766 -0.91337,-0.490304 -1.39588,-0.539512 -0.51947,-0.05298 -2.71318,-7.150236 3.945067,-7.924356 0.735048,-0.08546 1.851698,1.033219 1.734378,1.081102 z"
       id="path31" /></g><g
     id="layer12"
     style="display:none"
     transform="translate(38.442109,-13.518644)"
     sodipodi:insensitive="true"><path
       style="opacity:1;fill:none;stroke:#ff0000;stroke-width:0.079375;stroke-dasharray:none;stroke-opacity:1"
       d="m 51.693689,35.215681 c -3.196608,-1.662707 -3.386755,-2.516031 -3.351674,-3.751093 0.01793,-0.631174 0.61824,-1.366884 1.649788,-1.719252 0.593379,-0.202695 5.672822,0.565161 5.400878,0.642549 -3.719173,1.058369 -2.889837,5.248676 -3.698992,4.827796 z"
       id="path32" /><path
       style="opacity:1;fill:none;stroke:#ff0000;stroke-width:0.079375;stroke-dasharray:none;stroke-opacity:1"
       d="m 53.977303,31.816211 c 0.289428,0.167603 3.172484,0.03353 3.172484,0.03353 0,0 -0.991688,-1.050859 -1.350294,-1.16715 0,0 -2.157877,0.939232 -1.82219,1.133624 z"
       id="path33" /><path
       style="opacity:1;fill:none;stroke:#ff0000;stroke-width:0.079375;stroke-dasharray:none;stroke-opacity:1"
       d="m 53.858725,32.336899 c 0.08596,0.01227 3.394655,-0.07101 3.456745,0.0307 0.682087,1.117197 1.444647,2.647675 1.716802,5.599925 0.0045,0.04891 -4.566194,0.154453 -4.57798,0.09787 -0.250695,-1.203424 -1.01689,-2.940364 -1.301654,-3.990916 -0.165231,-0.609573 0.706087,-1.737583 0.706087,-1.737584 z"
       id="path34" /><path
       style="opacity:1;fill:none;stroke:#ff0000;stroke-width:0.079375;stroke-dasharray:none;stroke-opacity:1"
       d="m 54.609202,38.808946 c 0,0 4.549371,-0.220579 4.567306,-0.08683 0.05728,0.427166 0.167363,3.59621 0.03473,3.942121 -0.02011,0.05245 -3.229121,0.101361 -3.256157,0.0521 -0.297248,-0.541593 -1.542189,-3.711082 -1.345881,-3.90739 z"
       id="path35" /><path
       style="opacity:1;fill:none;stroke:#ff0000;stroke-width:0.079375;stroke-dasharray:none;stroke-opacity:1"
       d="m 56.198208,43.381443 c 0,0 3.028852,-0.241503 2.960932,-0.10419 -0.344337,0.696138 -0.843317,1.282923 -1.007236,1.285097 -0.173723,0.0023 -1.579855,-0.518109 -1.953696,-1.180901 z"
       id="path36" /></g><g
     id="layer16"
     style="display:inline"
     transform="translate(-9.8033497,3.3597977)"><path
       style="display:inline;opacity:1;fill:none;stroke:#ff0000;stroke-width:0.079375;stroke-dasharray:none;stroke-opacity:1"
       d="m 58.302785,37.759738 c -0.524905,-5.308384 1.35277,-12.096856 4.413868,-19.183348 1.275766,-2.953417 3.124252,-6.240925 8.431627,-4.69681 1.60535,0.467058 -9.394125,-4.1179624 -14.429961,-4.5270434 -6.68582,-0.543117 -9.748054,5.5491844 -10.242437,9.2804424 -0.739548,5.581595 0.367205,11.196577 3.225521,16.580297 0.234644,0.441957 1.848302,1.154649 2.32011,1.301526 2.038014,0.63445 6.338625,1.82494 6.281272,1.244936 z"
       id="path38" /><path
       style="opacity:1;fill:none;stroke:#ff0000;stroke-width:0.079375;stroke-dasharray:none;stroke-opacity:1"
       d="m 66.795391,28.80636 c 4.191332,8.149526 3.179367,6.601969 10.825295,9.434981 0,0 0.28995,-4.045473 0.50336,-6.186303 0.01,-0.02029 -11.328655,-3.248678 -11.328655,-3.248678 z"
       id="path39" /><path
       style="opacity:1;fill:none;stroke:#ff0000;stroke-width:0.079375;stroke-dasharray:none;stroke-opacity:1"
       d="m 76.859778,20.220776 c 0,0 -9.986138,-3.094962 -9.920428,-3.245529 0.37283,-0.854367 3.40228,-2.031014 5.987558,-1.422985 2.03048,0.477549 3.93287,4.668514 3.93287,4.668514 z"
       id="path41" /><path
       style="opacity:1;fill:none;stroke:#ff0000;stroke-width:0.079375;stroke-dasharray:none;stroke-opacity:1"
       d="m 66.603625,26.464872 c -0.34504,-0.316204 -2.057242,-3.359999 -1.960878,-3.583507 0.861719,-1.998679 1.579963,-3.584305 1.938963,-3.539203 0.49138,0.06174 10.436716,3.270789 10.436716,3.270789 0.0247,0.123594 1.23643,7.040231 1.0635,6.999204 -2.04331,-0.484792 -11.288701,-2.973526 -11.478301,-3.147283 z"
       id="path40" /></g><g
     id="g5"
     style="display:inline"
     transform="translate(-4.5755136,-5.9009404)"><path
       style="display:inline;fill:none;stroke:#ff0000;stroke-width:0.079375;stroke-dasharray:none;stroke-opacity:1"
       d="m 34.124976,69.740407 c 0.01,0.129531 -0.513058,0.77441 -1.282805,1.156732 -0.69057,0.343001 -0.664453,0.408067 -1.56722,0.477264 -0.826592,0.06336 -3.134254,-2.146696 -7.020746,-5.64872 -5.114255,-4.608327 -6.924053,-4.904775 -6.924053,-4.904775 0,0 0.396483,-0.549242 0.66393,-0.754444 0.583684,-0.447842 3.782759,-2.054942 5.117298,-2.342638 0.814414,-0.175551 3.259008,1.170522 3.259008,1.170522 0,0 3.854825,3.097856 6.857811,7.43681 0.230411,0.332918 0.857594,2.899817 0.896777,3.409247 z"
       id="path11" /><path
       style="display:inline;fill:none;stroke:#ff0000;stroke-width:0.079375;stroke-dasharray:none;stroke-opacity:1"
       d="m 20.318195,63.350398 c 0,0 -2.771783,0.384395 -3.691776,-0.816312 -0.156872,-0.204745 -0.01701,-0.592324 0.125917,-0.807039 0.434536,-0.652805 3.565859,1.623351 3.565859,1.623351 z"
       id="path12" /></g><g
     id="layer20"
     style="display:inline"
     transform="translate(-5.6210808,3.210431)"
     inkscape:label="sun"><g
       id="g1"
       transform="translate(3.1367016,-5.8253031)"><circle
         style="opacity:1;fill:none;fill-opacity:1;stroke:#000000;stroke-width:0.079375;stroke-dasharray:none;stroke-opacity:1"
         id="path44"
         cx="18.615574"
         cy="17.78817"
         r="3.430191" /><g
         id="g46"
         transform="matrix(1.3029362,0,0,1.3029362,1.0576468,1.612592)"
         style="stroke-width:0.0609201;stroke-dasharray:none"><path
           style="display:inline;fill:none;fill-opacity:1;stroke:#000000;stroke-width:0.108906;stroke-dasharray:none;stroke-opacity:1"
           id="path45-2-3"
           d="m 13.018292,5.3175725 0.978799,1.6953287 -1.957597,-1e-7 z"
           transform="matrix(0.30278808,0,0,-1.033427,9.5204232,22.939409)" /><path
           style="display:inline;fill:none;fill-opacity:1;stroke:#000000;stroke-width:0.108906;stroke-dasharray:none;stroke-opacity:1"
           id="path45-1"
           d="m 13.018292,5.3175725 0.978799,1.6953287 -1.957597,-1e-7 z"
           transform="matrix(0.30278808,0,0,1.033427,9.5204232,1.8266194)" /><path
           style="fill:none;fill-opacity:1;stroke:#000000;stroke-width:0.108906;stroke-dasharray:none;stroke-opacity:1"
           id="path45"
           d="m 13.018292,5.3175725 0.978799,1.6953287 -1.957597,-1e-7 z"
           transform="matrix(0,0.30278809,-1.033427,0,23.938062,8.4217034)" /><path
           style="fill:none;fill-opacity:1;stroke:#000000;stroke-width:0.108906;stroke-dasharray:none;stroke-opacity:1"
           id="path45-2"
           d="m 13.018292,5.3175725 0.978799,1.6953287 -1.957597,-1e-7 z"
           transform="matrix(0,0.30278809,1.033427,0,2.825273,8.4217034)" /></g><use
         x="0"
         y="0"
         xlink:href="#g46"
         id="use46"
         transform="rotate(45,18.493105,17.74687)"
         style="stroke-width:0.079375;stroke-dasharray:none" /></g></g></svg>
